<?xml version="1.0" encoding="UTF-8"?>
<svg id="Layer_1" data-name="Layer 1" xmlns="http://www.w3.org/2000/svg" xmlns:xlink="http://www.w3.org/1999/xlink" viewBox="0 0 500 100">
  <defs>
    <style>
      .cls-1 {
        fill: url(#linear-gradient-2);
      }

      .cls-2 {
        fill: url(#linear-gradient);
      }

      .cls-3 {
        fill: #e8e7e7;
      }
    </style>
    <linearGradient id="linear-gradient" x1="356.44" y1="52" x2="498.42" y2="52" gradientTransform="translate(0 102) scale(1 -1)" gradientUnits="userSpaceOnUse">
      <stop offset="0" stop-color="#db4352"/>
      <stop offset="1" stop-color="#bc2433"/>
    </linearGradient>
    <linearGradient id="linear-gradient-2" x1="1.58" y1="52" x2="77.51" y2="52" gradientTransform="translate(0 102) scale(1 -1)" gradientUnits="userSpaceOnUse">
      <stop offset="0" stop-color="#db4352"/>
      <stop offset="1" stop-color="#bc2433"/>
    </linearGradient>
  </defs>
  <g>
    <path class="cls-3" d="M91.07,72.66c-4.6-5.3-6.89-12.94-6.89-22.92s2.29-17.32,6.86-22.53c4.57-5.22,11.18-7.82,19.82-7.82,7.35,0,13.17,1.74,17.44,5.23,4.27,3.49,6.78,8.46,7.51,14.92h-8.13c-.78-4.93-2.6-8.72-5.45-11.35s-6.53-3.95-11.03-3.95c-5.42,0-9.56,2.18-12.41,6.55-2.85,4.37-4.27,10.69-4.27,18.96s1.45,14.9,4.34,19.35c2.9,4.45,7.05,6.68,12.48,6.68,4.46,0,8.1-1.32,10.93-3.95,2.83-2.64,4.63-6.42,5.41-11.35h8.13c-.74,6.46-3.24,11.44-7.51,14.92s-10.04,5.23-17.3,5.23c-8.69,0-15.33-2.65-19.92-7.95h0Z"/>
    <path class="cls-3" d="M142.77,38.1h8.96v8.67c.83-3,2.18-5.34,4.07-7.02,1.88-1.67,4.23-2.51,7.03-2.51.83,0,1.61.11,2.35.34l-.62,6.72c-.74-.45-1.7-.68-2.9-.68-3.31,0-5.79,1.69-7.45,5.06-1.66,3.37-2.48,7.38-2.48,12.03v19.05h-8.96v-41.67h0Z"/>
    <path class="cls-3" d="M200.26,66.24h6.82c-.83,4.59-2.91,8.13-6.24,10.63-3.33,2.49-7.48,3.74-12.44,3.74-4,0-7.48-.86-10.44-2.59-2.97-1.73-5.25-4.22-6.86-7.48-1.61-3.26-2.41-7.07-2.41-11.44s.8-8.28,2.41-11.56c1.61-3.29,3.9-5.83,6.86-7.61,2.97-1.79,6.45-2.68,10.44-2.68,6.11,0,10.81,1.87,14.1,5.61,3.29,3.74,4.95,9.13,5,16.16h-29.85v.51c0,5.39.97,9.57,2.93,12.54,1.95,2.98,4.86,4.46,8.72,4.46,6.2,0,9.86-3.43,10.96-10.29h0ZM181.34,44.86c-1.82,2.35-2.98,5.71-3.48,10.08h21.09c-.46-4.42-1.55-7.79-3.28-10.12-1.72-2.32-4.06-3.49-7-3.49s-5.53,1.18-7.34,3.53h0Z"/>
    <path class="cls-3" d="M218.18,77.3c-2.39-2.21-3.59-5.39-3.59-9.52s1.44-7.63,4.31-9.95c2.87-2.32,7.02-3.49,12.44-3.49h9.37v-2.89c0-3.29-.76-5.79-2.28-7.53-1.52-1.73-3.7-2.59-6.55-2.59s-4.95.84-6.58,2.51-2.63,4.1-3,7.27h-6.76c.5-4.48,2.23-7.91,5.17-10.29s6.92-3.57,11.92-3.57c5.47,0,9.66,1.3,12.58,3.91,2.92,2.61,4.38,6.35,4.38,11.22v13.61c0,4.99.34,9.58,1.03,13.78h-8.34c-.46-2.15-.78-4.22-.97-6.21-1.33,2.44-3.08,4.23-5.24,5.36-2.16,1.13-4.55,1.7-7.17,1.7-4.78,0-8.36-1.1-10.75-3.32h0ZM238.07,73.51c1.77-2.13,2.66-4.89,2.66-8.29v-6.72h-6.89c-3.4,0-5.97.78-7.72,2.34s-2.62,3.84-2.62,6.84.63,5.19,1.9,6.72c1.26,1.53,3.11,2.3,5.55,2.3,2.99,0,5.37-1.06,7.14-3.19h0Z"/>
    <path class="cls-3" d="M264.09,77.47c-1.7-2.1-2.55-5.22-2.55-9.35v-25.93h-6l1.1-4.08h5.03l2.48-11.73h6.27v11.73h9.37l-1.03,4.08h-8.34v26.87c0,4.88,1.54,7.31,4.62,7.31,1.61,0,3.24-.54,4.9-1.62v4.25c-2.12,1.08-4.9,1.62-8.34,1.62s-5.81-1.05-7.51-3.15h0Z"/>
    <path class="cls-3" d="M294.46,77.98c-3.1-1.76-5.49-4.26-7.17-7.53-1.68-3.26-2.52-7.1-2.52-11.52s.84-8.26,2.52-11.52c1.68-3.26,4.07-5.77,7.17-7.53,3.1-1.76,6.74-2.64,10.93-2.64s7.82.88,10.93,2.64c3.1,1.76,5.48,4.27,7.14,7.53,1.66,3.26,2.48,7.1,2.48,11.52s-.83,8.26-2.48,11.52c-1.66,3.26-4.03,5.77-7.14,7.53-3.1,1.76-6.74,2.64-10.93,2.64s-7.82-.88-10.93-2.64ZM313.86,71.81c2.07-3.15,3.1-7.44,3.1-12.88s-1.03-9.74-3.1-12.88-4.9-4.72-8.48-4.72-6.41,1.57-8.48,4.72c-2.07,3.15-3.1,7.44-3.1,12.88s1.03,9.74,3.1,12.88c2.07,3.15,4.9,4.72,8.48,4.72s6.41-1.57,8.48-4.72Z"/>
    <path class="cls-3" d="M333.72,38.1h8.96v8.67c.83-3,2.18-5.34,4.07-7.02,1.88-1.67,4.23-2.51,7.03-2.51.83,0,1.61.11,2.34.34l-.62,6.72c-.74-.45-1.7-.68-2.9-.68-3.31,0-5.79,1.69-7.45,5.06-1.66,3.37-2.48,7.38-2.48,12.03v19.05h-8.96v-41.67h0Z"/>
  </g>
  <path class="cls-2" d="M399.71,62.41l-4.45,18.21h-38.82l.52-2.85c.58-.06,1.41-.16,2.48-.3s1.86-.33,2.34-.56c.84-.4,1.48-.99,1.91-1.75s.73-1.65.89-2.65l8.3-44.27c.05-.26.09-.52.12-.8.04-.27.05-.54.05-.8,0-.58-.1-1.1-.3-1.58-.2-.47-.55-.88-1.07-1.23-.47-.35-1.15-.68-2.05-.99s-1.66-.52-2.29-.6l.52-2.85h20.95l-.52,2.85c-.54.03-1.31.15-2.33.37s-1.91.47-2.67.76c-.91.37-1.57.98-1.99,1.81-.42.83-.72,1.71-.91,2.62l-7.75,41.56c-.19,1.01-.33,1.9-.44,2.66-.11.76-.16,1.39-.16,1.88,0,1.58.52,2.57,1.56,2.98,1.04.4,2.93.6,5.69.6,1.54,0,3.29-.17,5.27-.5,1.97-.33,3.34-.93,4.11-1.79,1.19-1.29,2.69-3.3,4.5-6.02,1.81-2.72,3.16-4.97,4.05-6.75h2.48,0ZM420.61,74.21h-.19c-.97.96-1.89,1.84-2.77,2.64s-1.75,1.48-2.61,2.02c-1.01.62-1.92,1.07-2.74,1.34-.82.27-1.89.41-3.21.41-2.02,0-3.58-.72-4.69-2.16-1.11-1.44-1.67-3.32-1.67-5.65,0-.62.04-1.36.13-2.21.08-.86.28-2.12.6-3.81l2.44-12.32c.21-1.14.38-2.15.52-3.03s.2-1.72.2-2.53c0-1.45-.19-2.41-.58-2.89s-1.18-.72-2.37-.72c-.46,0-1.05.11-1.76.33-.71.22-1.27.39-1.66.53l.47-2.5c1.64-.91,3.08-1.6,4.33-2.07,1.25-.47,2.25-.7,3.01-.7,1.68,0,2.91.48,3.7,1.46s1.18,2.35,1.18,4.14c0,.47-.04,1.1-.13,1.9-.08.8-.21,1.61-.38,2.41l-2.78,14.38c-.21,1.09-.38,2.1-.52,3.05-.14.95-.2,1.66-.2,2.16,0,1.74.3,3.11.91,4.12.61,1.01,1.57,1.51,2.9,1.51s2.72-.43,4.14-1.3,2.84-2.18,4.26-3.94l5.48-29.25,5.49-.47.38.58-4.68,25.02c-.21,1.06-.4,2.13-.56,3.21-.17,1.07-.25,1.83-.25,2.27,0,1.48.26,2.48.77,3.01.51.53,1.37.8,2.56.8.4,0,.96-.08,1.7-.23s1.3-.32,1.7-.5l-.47,2.49c-1.74.88-3.2,1.54-4.36,1.98s-2.24.66-3.23.66c-1.7,0-2.97-.61-3.79-1.82-.83-1.22-1.24-2.64-1.24-4.27h0ZM449.45,80.62c-3.67,0-6.58-1.32-8.71-3.97-2.13-2.64-3.2-6.4-3.2-11.28,0-3.24.4-6.35,1.21-9.31s1.94-5.61,3.39-7.91,3.28-4.19,5.5-5.66c2.21-1.46,4.68-2.2,7.38-2.2,3,0,5.29.78,6.85,2.35s2.35,3.54,2.35,5.93c0,1.79-.34,3.36-1.02,4.7-.68,1.35-1.71,2.02-3.07,2.02-1.14,0-1.99-.35-2.55-1.05-.57-.7-.85-1.47-.85-2.32s.23-1.95.68-3.39.81-2.59,1.08-3.47c-.23-.7-.74-1.21-1.54-1.53-.8-.32-1.63-.48-2.49-.48-2.85,0-5.32,2.05-7.38,6.1-2.07,4.1-3.1,9.19-3.1,15.27,0,4.08.7,7.21,2.1,9.39,1.4,2.18,3.43,3.27,6.09,3.27,1.74,0,3.44-.48,5.1-1.44,1.66-.96,3.19-2.35,4.59-4.16l1.81,1.53c-1.68,2.44-3.73,4.31-6.15,5.61-2.42,1.3-5.07,1.95-7.94,1.95h0ZM471.69,80.62c-1.74,0-3.05-.53-3.93-1.58-.88-1.05-1.32-2.55-1.32-4.5,0-1.57.26-3.02.79-4.36.52-1.34,1.41-2.45,2.64-3.35,1.08-.79,2.27-1.38,3.56-1.77,1.29-.38,2.61-.64,3.95-.77,1.34-.13,2.69-.19,4.04-.19h2.24l.76-3.91c.21-1.06.38-2.05.52-2.98.14-.93.2-1.73.2-2.41,0-1.45-.37-2.59-1.1-3.41-.74-.82-1.89-1.23-3.47-1.23-1.23,0-2.31.2-3.25.6-.94.4-1.78,1.03-2.53,1.88l-.95,3.27c-.27.93-.65,1.62-1.13,2.07s-1.14.68-1.97.68c-.9,0-1.57-.28-2.02-.85-.45-.57-.68-1.26-.68-2.07,0-1.31.47-2.53,1.4-3.68.93-1.14,2.32-2.08,4.16-2.81,1.84-.73,4.08-1.1,6.72-1.1,3.42,0,6.01.72,7.77,2.16,1.76,1.44,2.64,3.55,2.64,6.34,0,.75-.06,1.55-.17,2.41-.11.86-.29,1.82-.52,2.89l-3.01,15.17c-.19.93-.34,1.74-.47,2.41s-.19,1.23-.19,1.66c0,.7.15,1.2.44,1.51.29.31.76.47,1.4.47.46,0,.97-.09,1.51-.28.54-.19,1.11-.44,1.7-.77l-.47,2.5c-1.08.62-2.17,1.1-3.27,1.44-1.1.34-2.1.5-3.01.5-1.4,0-2.48-.38-3.25-1.15-.77-.77-1.15-1.83-1.15-3.2v-1.34h-.19c-1.08,1.74-2.39,3.11-3.93,4.12-1.54,1.01-3.24,1.51-5.1,1.51h0ZM474.89,76.17c1.29-.96,2.49-2.37,3.58-4.21l2.05-10.73h-1.72c-2.33,0-4.24.29-5.74.87-1.5.58-2.6,1.46-3.3,2.64-.7,1.18-1.05,2.69-1.05,4.52,0,2.18.38,3.84,1.13,4.99.75,1.14,1.77,1.72,3.05,1.72.75,0,1.42-.27,2-.79h0Z"/>
  <path class="cls-1" d="M77.49,45.89c-.39-3.93-4.33-6.7-6.72-8.22C61.93,32.05,36.39,19.4,1.58,3.66c.25.13.5.25.74.38.05.02.09.05.14.08-.07-.04-.15-.08-.22-.12,26.07,15.74,44.93,27.94,50.14,32.18,2.8,2.28,4.27,5.36,4.27,5.36,1.2,2.4,1.39,4.35,1.42,4.8.07.79.16,2.78-.86,5.65-1.32,3.74-3.54,6.32-4.56,7.34-5.36,5.37-22.8,19.26-47,36.98,0,0,.01,0,.02-.01-.02.02-.04.03-.07.04.01,0,.02-.01.03-.02-.01,0-.02.01-.03.02,3.44-1.91,55.36-30.84,67.17-41.66,4.66-4.27,4.85-7.35,4.7-8.79h0Z"/>
</svg>
