<svg id="Layer_1" data-name="Layer 1" xmlns="http://www.w3.org/2000/svg" xmlns:xlink="http://www.w3.org/1999/xlink" viewBox="55 80 1810 340">
  <defs>
    <style>
      .cls-1 {
        fill: url(#linear-gradient-2);
      }

      .cls-2 {
        fill: url(#linear-gradient);
      }

      .cls-3 {
        fill: #e8e7e7;
      }
    </style>
    <linearGradient id="linear-gradient" x1="1344.42" y1="250" x2="1857.24" y2="250" gradientUnits="userSpaceOnUse">
      <stop offset="0" stop-color="#db4352"/>
      <stop offset="1" stop-color="#bc2433"/>
    </linearGradient>
    <linearGradient id="linear-gradient-2" x1="62.76" x2="337.03" xlink:href="#linear-gradient"/>
  </defs>
  <g>
    <path class="cls-3" d="M385.97,331.85c-16.6-19.14-24.9-46.73-24.9-82.77s8.26-62.55,24.77-81.39c16.51-18.84,40.37-28.26,71.58-28.26,26.56,0,47.56,6.3,62.99,18.89,15.44,12.59,24.48,30.56,27.14,53.9h-29.38c-2.82-17.81-9.38-31.48-19.67-41-10.29-9.52-23.57-14.28-39.84-14.28-19.59,0-34.53,7.88-44.82,23.65-10.29,15.77-15.44,38.6-15.44,68.49s5.23,53.8,15.69,69.87c10.46,16.08,25.48,24.11,45.07,24.11,16.1,0,29.26-4.76,39.46-14.28,10.21-9.52,16.72-23.19,19.55-41h29.38c-2.66,23.34-11.7,41.31-27.14,53.9-15.44,12.59-36.27,18.89-62.49,18.89-31.37,0-55.36-9.57-71.96-28.72Z"/>
    <path class="cls-3" d="M572.7,207h32.37v31.33c2.99-10.85,7.88-19.3,14.69-25.34,6.8-6.04,15.27-9.06,25.4-9.06,2.99,0,5.81.41,8.47,1.23l-2.24,24.26c-2.66-1.64-6.14-2.46-10.46-2.46-11.95,0-20.91,6.1-26.89,18.27-5.98,12.18-8.96,26.67-8.96,43.46v68.8h-32.37v-150.49Z"/>
    <path class="cls-3" d="M780.35,308.66h24.65c-2.99,16.59-10.5,29.38-22.53,38.39-12.04,9.01-27.01,13.51-44.94,13.51-14.44,0-27.01-3.12-37.72-9.37-10.71-6.24-18.97-15.25-24.77-27.03-5.81-11.77-8.71-25.54-8.71-41.31s2.9-29.89,8.71-41.77c5.81-11.87,14.07-21.04,24.77-27.49,10.71-6.45,23.28-9.67,37.72-9.67,22.07,0,39.05,6.76,50.92,20.27,11.87,13.51,17.88,32.97,18.05,58.35h-107.81v1.84c0,19.45,3.52,34.55,10.58,45.3,7.05,10.75,17.55,16.12,31.5,16.12,22.41,0,35.6-12.39,39.59-37.16ZM712,231.42c-6.56,8.5-10.75,20.63-12.57,36.4h76.19c-1.66-15.97-5.6-28.15-11.83-36.55-6.22-8.39-14.65-12.59-25.27-12.59s-19.96,4.25-26.52,12.75Z"/>
    <path class="cls-3" d="M845.08,348.59c-8.63-7.99-12.95-19.45-12.95-34.4s5.19-27.54,15.56-35.93c10.37-8.39,25.35-12.59,44.94-12.59h33.86v-10.44c0-11.87-2.74-20.93-8.22-27.18-5.48-6.24-13.36-9.37-23.65-9.37s-17.89,3.02-23.78,9.06c-5.89,6.04-9.5,14.8-10.83,26.26h-24.4c1.82-16.17,8.05-28.56,18.67-37.16,10.62-8.6,24.98-12.9,43.07-12.9,19.75,0,34.9,4.71,45.44,14.13,10.54,9.42,15.81,22.93,15.81,40.54v49.14c0,18.02,1.24,34.61,3.73,49.76h-30.13c-1.66-7.78-2.82-15.25-3.49-22.42-4.82,8.81-11.12,15.26-18.92,19.35-7.8,4.09-16.43,6.14-25.89,6.14-17.27,0-30.21-3.99-38.84-11.98ZM916.91,334.92c6.39-7.68,9.59-17.66,9.59-29.94v-24.26h-24.9c-12.29,0-21.58,2.82-27.89,8.45-6.31,5.63-9.46,13.87-9.46,24.72s2.28,18.74,6.85,24.26c4.56,5.53,11.24,8.29,20.04,8.29,10.79,0,19.38-3.84,25.77-11.52Z"/>
    <path class="cls-3" d="M1010.9,349.2c-6.14-7.57-9.21-18.84-9.21-33.78v-93.67h-21.66l3.98-14.74h18.18l8.96-42.38h22.66v42.38h33.86l-3.73,14.74h-30.13v97.05c0,17.61,5.56,26.41,16.68,26.41,5.81,0,11.7-1.94,17.68-5.84v15.36c-7.64,3.89-17.68,5.84-30.13,5.84s-21-3.79-27.14-11.36Z"/>
    <path class="cls-3" d="M1120.58,351.05c-11.2-6.34-19.84-15.4-25.89-27.18-6.06-11.77-9.09-25.65-9.09-41.62s3.03-29.84,9.09-41.62c6.06-11.77,14.69-20.83,25.89-27.18,11.2-6.34,24.36-9.52,39.46-9.52s28.26,3.18,39.46,9.52c11.2,6.35,19.79,15.41,25.77,27.18,5.98,11.78,8.96,25.64,8.96,41.62s-2.99,29.84-8.96,41.62c-5.98,11.78-14.57,20.84-25.77,27.18-11.2,6.35-24.36,9.52-39.46,9.52s-28.26-3.17-39.46-9.52ZM1190.66,328.78c7.47-11.36,11.2-26.87,11.2-46.53s-3.73-35.17-11.2-46.53c-7.47-11.36-17.68-17.05-30.63-17.05s-23.15,5.68-30.62,17.05c-7.47,11.36-11.2,26.87-11.2,46.53s3.73,35.17,11.2,46.53c7.47,11.36,17.68,17.05,30.62,17.05s23.16-5.68,30.63-17.05Z"/>
    <path class="cls-3" d="M1262.37,207h32.37v31.33c2.99-10.85,7.88-19.3,14.69-25.34,6.8-6.04,15.27-9.06,25.4-9.06,2.99,0,5.81.41,8.46,1.23l-2.24,24.26c-2.66-1.64-6.14-2.46-10.46-2.46-11.95,0-20.91,6.1-26.89,18.27-5.98,12.18-8.96,26.67-8.96,43.46v68.8h-32.37v-150.49Z"/>
  </g>
  <path class="cls-2" d="M1500.7,294.8l-16.06,65.76h-140.21l1.89-10.29c2.11-.21,5.1-.57,8.97-1.09,3.87-.52,6.7-1.19,8.46-2.03,3.03-1.45,5.33-3.56,6.89-6.31,1.56-2.75,2.63-5.95,3.22-9.58l29.96-159.89c.17-.93.32-1.89.44-2.88.13-.99.19-1.95.19-2.88,0-2.08-.36-3.97-1.07-5.69-.72-1.71-2-3.19-3.85-4.44-1.69-1.25-4.15-2.44-7.39-3.58-3.24-1.14-6-1.87-8.28-2.18l1.89-10.28h75.65l-1.89,10.28c-1.94.11-4.74.55-8.4,1.33-3.66.78-6.89,1.69-9.66,2.73-3.28,1.35-5.68,3.53-7.2,6.55-1.52,3.01-2.61,6.17-3.29,9.47l-28,150.09c-.68,3.65-1.2,6.85-1.58,9.61-.38,2.75-.57,5.01-.57,6.78,0,5.71,1.88,9.3,5.63,10.75,3.75,1.46,10.6,2.18,20.55,2.18,5.56,0,11.9-.6,19.03-1.79,7.12-1.19,12.07-3.35,14.86-6.47,4.3-4.67,9.71-11.92,16.25-21.74s11.4-17.95,14.61-24.39h8.97ZM1576.19,337.42h-.68c-3.49,3.46-6.83,6.64-10.01,9.54-3.18,2.9-6.33,5.33-9.44,7.3-3.64,2.25-6.94,3.86-9.9,4.84-2.96.98-6.83,1.47-11.6,1.47-7.28,0-12.93-2.6-16.95-7.79-4.02-5.19-6.03-12-6.03-20.42,0-2.25.15-4.91.46-8,.3-3.09,1.02-7.67,2.15-13.75l8.83-44.48c.75-4.12,1.38-7.76,1.87-10.94.49-3.18.74-6.22.74-9.12,0-5.24-.7-8.72-2.1-10.45-1.4-1.73-4.26-2.6-8.57-2.6-1.67,0-3.78.39-6.36,1.18-2.57.79-4.58,1.42-6.01,1.91l1.71-9.04c5.91-3.3,11.13-5.79,15.64-7.49,4.51-1.7,8.13-2.54,10.86-2.54,6.07,0,10.52,1.75,13.37,5.26s4.27,8.49,4.27,14.94c0,1.68-.15,3.98-.46,6.88-.3,2.9-.76,5.8-1.37,8.7l-10.04,51.92c-.75,3.93-1.38,7.6-1.87,11.01-.49,3.42-.74,6.01-.74,7.79,0,6.27,1.1,11.23,3.3,14.87,2.2,3.65,5.68,5.47,10.46,5.47s9.83-1.57,14.94-4.7c5.11-3.13,10.25-7.88,15.4-14.24l19.8-105.66,19.84-1.68,1.37,2.1-16.91,90.36c-.76,3.84-1.44,7.7-2.04,11.58-.61,3.88-.91,6.62-.91,8.21,0,5.33.93,8.96,2.78,10.87,1.85,1.92,4.94,2.88,9.25,2.88,1.44,0,3.48-.28,6.13-.84,2.65-.56,4.69-1.17,6.13-1.82l-1.71,8.98c-6.29,3.18-11.54,5.57-15.75,7.16-4.21,1.59-8.09,2.39-11.66,2.39-6.14,0-10.71-2.2-13.7-6.59-3-4.4-4.49-9.54-4.49-15.43ZM1680.37,360.57c-13.27,0-23.76-4.78-31.45-14.33-7.7-9.55-11.55-23.13-11.55-40.73,0-11.7,1.46-22.92,4.38-33.64,2.92-10.72,7-20.25,12.23-28.58,5.23-8.33,11.85-14.89,19.84-19.67,7.99-4.78,17.04-7.17,27.14-7.17,9.28,0,16.91,2.39,22.87,7.17,5.97,4.78,10.27,11.35,12.91,19.67h.68l7.85-42.38,19.84-1.68,1.37,2.1-28.51,152.15c-.68,3.55-1.29,7.17-1.82,10.87-.53,3.7-.8,6.41-.8,8.14,0,5.24.93,8.84,2.78,10.8,1.85,1.96,4.86,2.95,9.02,2.95,1.52,0,3.56-.28,6.13-.84,2.57-.56,4.61-1.13,6.13-1.68l-1.71,8.84c-6.22,3.18-11.39,5.61-15.52,7.3-4.13,1.68-7.93,2.53-11.4,2.53-6.14,0-10.63-1.96-13.47-5.89-2.84-3.93-4.26-8.84-4.26-14.73,0-1.68.19-3.65.57-5.89.38-2.25.76-4.35,1.14-6.31h-.68c-3.72,5.8-7.55,10.79-11.49,14.94-3.94,4.16-8.26,7.41-12.97,9.75-4.7,2.34-10.29,3.51-16.74,3.51ZM1691.23,343.79c4.89-2.81,9.33-6.62,13.31-11.43,3.98-4.81,7.42-10.34,10.29-16.59,2.88-6.24,5.04-12.92,6.47-20.03l6.02-31.43c.08-.37.19-1.17.34-2.39.15-1.21.23-2.22.23-3.01,0-8.37-2.42-14.75-7.28-19.12-4.85-4.37-11.45-6.55-19.78-6.55-6.22,0-11.96,1.87-17.2,5.61-5.25,3.74-9.78,8.79-13.6,15.15-3.82,6.36-6.83,13.77-9.02,22.21-2.19,8.44-3.29,17.39-3.29,26.84,0,13.98,2.84,24.96,8.51,32.93,5.67,7.97,13.41,11.95,23.21,11.95.91,0,1.89-.05,2.96-.14Z"/>
  <path class="cls-1" d="M336.92,235.16c-1.41-14.21-15.63-24.2-24.26-29.69-31.93-20.3-124.17-66-249.9-122.84.9.46,1.79.92,2.68,1.38.17.09.33.19.5.28-.27-.14-.53-.28-.79-.42,94.15,56.86,162.27,100.92,181.09,116.22,10.12,8.23,15.43,19.37,15.43,19.37,4.33,8.68,5.01,15.7,5.14,17.33.24,2.84.56,10.03-3.09,20.39-4.75,13.52-12.79,22.83-16.46,26.51-19.37,19.39-82.34,69.55-169.77,133.55.02-.01.04-.03.06-.04-.08.06-.16.11-.24.16.04-.02.08-.05.12-.07-.04.02-.08.05-.12.07,12.43-6.9,199.96-111.38,242.62-150.48,16.83-15.42,17.5-26.53,16.98-31.73Z"/>
</svg>
