<?xml version="1.0" encoding="UTF-8"?>
<svg xmlns="http://www.w3.org/2000/svg" xmlns:xlink="http://www.w3.org/1999/xlink" version="1.1" viewBox="0 0 84 100">
  <defs>
    <linearGradient id="linear-gradient1" x1="9.8" y1="1028" x2="83.2" y2="1028" gradientTransform="translate(0 -978)" gradientUnits="userSpaceOnUse">
      <stop offset="0" stop-color="#db4352"/>
      <stop offset="1" stop-color="#bc2433"/>
    </linearGradient>
  </defs>
  <path fill="url(#linear-gradient1)" d="M83.2,46c-.4-3.8-4.2-6.5-6.5-7.9-8.5-5.4-33.2-17.7-66.9-32.9.2.1.5.2.7.4,0,0,0,0,.1,0,0,0-.1,0-.2-.1,25.2,15.2,43.4,27,48.5,31.1,2.7,2.2,4.1,5.2,4.1,5.2,1.2,2.3,1.3,4.2,1.4,4.6,0,.8.2,2.7-.8,5.5-1.3,3.6-3.4,6.1-4.4,7.1-5.2,5.2-22,18.6-45.4,35.8,0,0,0,0,0,0,0,0,0,0,0,0,0,0,0,0,0,0,0,0,0,0,0,0,3.3-1.8,53.5-29.8,64.9-40.3,4.5-4.1,4.7-7.1,4.5-8.5h0Z"/>
</svg>
