<?xml version="1.0" encoding="UTF-8"?>
<svg id="Layer_1" xmlns="http://www.w3.org/2000/svg" xmlns:xlink="http://www.w3.org/1999/xlink" version="1.1" viewBox="0 0 500 100">
  <!-- Generator: Adobe Illustrator 30.1.0, SVG Export Plug-In . SVG Version: 2.1.1 Build 136)  -->
  <defs>
    <style>
      .st0 {
        fill: url(#linear-gradient1);
      }

      .st1 {
        fill: url(#linear-gradient);
      }

      .st2 {
        fill: #e8e7e7;
      }
    </style>
    <linearGradient id="linear-gradient" x1="352.9" y1="1028" x2="490.2" y2="1028" gradientTransform="translate(0 -978)" gradientUnits="userSpaceOnUse">
      <stop offset="0" stop-color="#db4352"/>
      <stop offset="1" stop-color="#bc2433"/>
    </linearGradient>
    <linearGradient id="linear-gradient1" x1="9.8" y1="1028" x2="83.2" y2="1028" gradientTransform="translate(0 -978)" gradientUnits="userSpaceOnUse">
      <stop offset="0" stop-color="#db4352"/>
      <stop offset="1" stop-color="#bc2433"/>
    </linearGradient>
  </defs>
  <g>
    <path class="st2" d="M96.3,71.9c-4.4-5.1-6.7-12.5-6.7-22.2s2.2-16.7,6.6-21.8c4.4-5,10.8-7.6,19.2-7.6s12.7,1.7,16.9,5.1,6.6,8.2,7.3,14.4h-7.9c-.8-4.8-2.5-8.4-5.3-11s-6.3-3.8-10.7-3.8-9.2,2.1-12,6.3c-2.8,4.2-4.1,10.3-4.1,18.3s1.4,14.4,4.2,18.7c2.8,4.3,6.8,6.5,12.1,6.5s7.8-1.3,10.6-3.8c2.7-2.6,4.5-6.2,5.2-11h7.9c-.7,6.2-3.1,11.1-7.3,14.4-4.1,3.4-9.7,5.1-16.7,5.1s-14.8-2.6-19.3-7.7h0Z"/>
    <path class="st2" d="M146.3,38.5h8.7v8.4c.8-2.9,2.1-5.2,3.9-6.8,1.8-1.6,4.1-2.4,6.8-2.4s1.6.1,2.3.3l-.6,6.5c-.7-.4-1.6-.7-2.8-.7-3.2,0-5.6,1.6-7.2,4.9-1.6,3.3-2.4,7.1-2.4,11.6v18.4h-8.7v-40.3h0Z"/>
    <path class="st2" d="M201.9,65.7h6.6c-.8,4.4-2.8,7.9-6,10.3-3.2,2.4-7.2,3.6-12,3.6s-7.2-.8-10.1-2.5c-2.9-1.7-5.1-4.1-6.6-7.2s-2.3-6.8-2.3-11.1.8-8,2.3-11.2c1.6-3.2,3.8-5.6,6.6-7.4,2.9-1.7,6.2-2.6,10.1-2.6,5.9,0,10.5,1.8,13.6,5.4,3.2,3.6,4.8,8.8,4.8,15.6h-28.9v.5c0,5.2.9,9.3,2.8,12.1,1.9,2.9,4.7,4.3,8.4,4.3,6,0,9.5-3.3,10.6-9.9h0ZM183.6,45c-1.8,2.3-2.9,5.5-3.4,9.7h20.4c-.4-4.3-1.5-7.5-3.2-9.8-1.7-2.2-3.9-3.4-6.8-3.4s-5.3,1.1-7.1,3.4h0Z"/>
    <path class="st2" d="M219.2,76.4c-2.3-2.1-3.5-5.2-3.5-9.2s1.4-7.4,4.2-9.6,6.8-3.4,12-3.4h9.1v-2.8c0-3.2-.7-5.6-2.2-7.3-1.5-1.7-3.6-2.5-6.3-2.5s-4.8.8-6.4,2.4-2.5,4-2.9,7h-6.5c.5-4.3,2.2-7.6,5-9.9s6.7-3.5,11.5-3.5,9.3,1.3,12.2,3.8,4.2,6.1,4.2,10.8v13.2c0,4.8.3,9.3,1,13.3h-8.1c-.4-2.1-.8-4.1-.9-6-1.3,2.4-3,4.1-5.1,5.2s-4.4,1.6-6.9,1.6c-4.6,0-8.1-1.1-10.4-3.2h0ZM238.5,72.7c1.7-2.1,2.6-4.7,2.6-8v-6.5h-6.7c-3.3,0-5.8.8-7.5,2.3s-2.5,3.7-2.5,6.6.6,5,1.8,6.5c1.2,1.5,3,2.2,5.4,2.2s5.2-1,6.9-3.1h0Z"/>
    <path class="st2" d="M263.6,76.6c-1.6-2-2.5-5-2.5-9v-25.1h-5.8l1.1-3.9h4.9l2.4-11.3h6.1v11.3h9.1l-1,3.9h-8.1v26c0,4.7,1.5,7.1,4.5,7.1s3.1-.5,4.7-1.6v4.1c-2,1-4.7,1.6-8.1,1.6s-5.6-1-7.3-3h0Z"/>
    <path class="st2" d="M293,77.1c-3-1.7-5.3-4.1-6.9-7.3-1.6-3.2-2.4-6.9-2.4-11.1s.8-8,2.4-11.1c1.6-3.2,3.9-5.6,6.9-7.3s6.5-2.6,10.6-2.6,7.6.9,10.6,2.6c3,1.7,5.3,4.1,6.9,7.3s2.4,6.9,2.4,11.1-.8,8-2.4,11.1c-1.6,3.2-3.9,5.6-6.9,7.3-3,1.7-6.5,2.6-10.6,2.6s-7.6-.9-10.6-2.6ZM311.7,71.1c2-3,3-7.2,3-12.5s-1-9.4-3-12.5-4.7-4.6-8.2-4.6-6.2,1.5-8.2,4.6-3,7.2-3,12.5,1,9.4,3,12.5c2,3,4.7,4.6,8.2,4.6s6.2-1.5,8.2-4.6Z"/>
    <path class="st2" d="M330.9,38.5h8.7v8.4c.8-2.9,2.1-5.2,3.9-6.8,1.8-1.6,4.1-2.4,6.8-2.4s1.6.1,2.3.3l-.6,6.5c-.7-.4-1.6-.7-2.8-.7-3.2,0-5.6,1.6-7.2,4.9-1.6,3.3-2.4,7.1-2.4,11.6v18.4h-8.7v-40.3h0Z"/>
  </g>
  <path class="st1" d="M394.7,62l-4.3,17.6h-37.5l.5-2.8c.6,0,1.4-.2,2.4-.3s1.8-.3,2.3-.5c.8-.4,1.4-1,1.8-1.7s.7-1.6.9-2.6l8-42.8c0-.3,0-.5.1-.8,0-.3,0-.5,0-.8,0-.6,0-1.1-.3-1.5-.2-.5-.5-.9-1-1.2-.5-.3-1.1-.7-2-1s-1.6-.5-2.2-.6l.5-2.8h20.3l-.5,2.8c-.5,0-1.3.1-2.3.4s-1.8.5-2.6.7c-.9.4-1.5.9-1.9,1.8-.4.8-.7,1.7-.9,2.5l-7.5,40.2c-.2,1-.3,1.8-.4,2.6-.1.7-.2,1.3-.2,1.8,0,1.5.5,2.5,1.5,2.9,1,.4,2.8.6,5.5.6s3.2-.2,5.1-.5c1.9-.3,3.2-.9,4-1.7,1.2-1.2,2.6-3.2,4.4-5.8,1.8-2.6,3.1-4.8,3.9-6.5h2.4ZM414.9,73.4h-.2c-.9.9-1.8,1.8-2.7,2.6s-1.7,1.4-2.5,2c-1,.6-1.9,1-2.6,1.3-.8.3-1.8.4-3.1.4-2,0-3.5-.7-4.5-2.1-1.1-1.4-1.6-3.2-1.6-5.5s0-1.3.1-2.1c0-.8.3-2,.6-3.7l2.4-11.9c.2-1.1.4-2.1.5-2.9s.2-1.7.2-2.4c0-1.4-.2-2.3-.6-2.8s-1.1-.7-2.3-.7-1,.1-1.7.3c-.7.2-1.2.4-1.6.5l.5-2.4c1.6-.9,3-1.5,4.2-2s2.2-.7,2.9-.7c1.6,0,2.8.5,3.6,1.4s1.1,2.3,1.1,4,0,1.1-.1,1.8c0,.8-.2,1.6-.4,2.3l-2.7,13.9c-.2,1.1-.4,2-.5,2.9-.1.9-.2,1.6-.2,2.1,0,1.7.3,3,.9,4,.6,1,1.5,1.5,2.8,1.5s2.6-.4,4-1.3,2.7-2.1,4.1-3.8l5.3-28.3,5.3-.5.4.6-4.5,24.2c-.2,1-.4,2.1-.5,3.1-.2,1-.2,1.8-.2,2.2,0,1.4.3,2.4.7,2.9.5.5,1.3.8,2.5.8s.9,0,1.6-.2,1.3-.3,1.6-.5l-.5,2.4c-1.7.9-3.1,1.5-4.2,1.9s-2.2.6-3.1.6c-1.6,0-2.9-.6-3.7-1.8-.8-1.2-1.2-2.6-1.2-4.1h0ZM442.8,79.6c-3.5,0-6.4-1.3-8.4-3.8-2.1-2.6-3.1-6.2-3.1-10.9s.4-6.1,1.2-9,1.9-5.4,3.3-7.6,3.2-4.1,5.3-5.5c2.1-1.4,4.5-2.1,7.1-2.1s5.1.8,6.6,2.3,2.3,3.4,2.3,5.7-.3,3.2-1,4.5c-.7,1.3-1.7,2-3,2s-1.9-.3-2.5-1c-.6-.7-.8-1.4-.8-2.2s.2-1.9.7-3.3.8-2.5,1-3.4c-.2-.7-.7-1.2-1.5-1.5-.8-.3-1.6-.5-2.4-.5-2.8,0-5.1,2-7.1,6-2,4-3,8.8-3,14.6s.6,6.4,1.9,8.5,3,3.1,5.2,3.1,3.7-.6,5.3-2,3-3.1,4.4-5.5l1.7,1.6c-1.4,2.7-3.3,5.1-5.7,7.1s-4.9,3-7.6,3h0ZM490.2,45.3c0,1.1-.3,2.1-1.1,3.1-.7.9-1.6,1.4-2.6,1.4s-1.3-.1-2-.3-1.4-.6-2.1-1c-1.1.8-2.3,1.7-3.5,2.9-1.2,1.1-2.5,2.5-3.9,4.1,1.2,3.7,2.1,6.7,2.9,9.1.8,2.4,1.5,4.3,2.1,5.8.7,1.9,1.5,3.2,2.4,4s1.9,1.2,2.9,1.2,1.2,0,2-.3c.9-.2,1.5-.4,2-.6l-.5,2.5c-1.9.9-3.4,1.6-4.4,1.9s-2.2.5-3.3.5-2.4-.4-3.3-1.3-1.8-2.5-2.7-4.8c-.8-2.2-1.6-4.4-2.2-6.6s-1.3-4.2-1.9-6.1l-3.5,3.7-2.6,14.6h-5.7l9.1-48.4c.1-.8.2-1.3.3-1.6s0-.7,0-1.1c0-.9-.1-1.6-.4-2.1-.2-.5-.6-.9-1-1.1-.4-.2-1-.4-1.6-.5s-1.3-.2-2-.3l.4-2.3,11.3-.8.3.6-7.5,39.1h.1c2.3-3.1,4.4-5.7,6.3-7.9s3.8-4.5,5.9-6.9c1.5-1.7,2.6-2.8,3.5-3.4.9-.6,1.8-.9,2.7-.9s1.9.4,2.5,1.1.9,1.7.9,2.9h0Z"/>
  <path class="st0" d="M83.2,46c-.4-3.8-4.2-6.5-6.5-7.9-8.5-5.4-33.2-17.7-66.9-32.9.2.1.5.2.7.4,0,0,0,0,.1,0,0,0-.1,0-.2-.1,25.2,15.2,43.4,27,48.5,31.1,2.7,2.2,4.1,5.2,4.1,5.2,1.2,2.3,1.3,4.2,1.4,4.6,0,.8.2,2.7-.8,5.5-1.3,3.6-3.4,6.1-4.4,7.1-5.2,5.2-22,18.6-45.4,35.8,0,0,0,0,0,0,0,0,0,0,0,0,0,0,0,0,0,0,0,0,0,0,0,0,3.3-1.8,53.5-29.8,64.9-40.3,4.5-4.1,4.7-7.1,4.5-8.5h0Z"/>
</svg>